<svg width="36" height="36" viewBox="0 0 36 36" fill="none" xmlns="http://www.w3.org/2000/svg">
<g id="Icon">
<path id="Combined Shape" fill-rule="evenodd" clip-rule="evenodd" d="M35.6226 22.2396C35.3938 22.1487 35.1326 22.2056 34.9626 22.3835L32.4001 25.0769V9.07897H32.4031L34.8481 6.43915C35.073 6.19609 35.0582 5.81627 34.8148 5.59134L34.8143 5.59079L33.9343 4.77182L35.1571 3.45191C35.3817 3.20858 35.3666 2.82903 35.1233 2.60438L32.4833 0.159555C32.2402 -0.0653736 31.8606 -0.0508177 31.6357 0.192511L27.3697 4.79846H6.60004C6.59811 3.1424 5.25613 1.80052 3.59995 1.79859H3.00009C1.3439 1.80052 0.00192261 3.1424 0 4.79846V30.5966C0 30.9278 0.268616 31.1964 0.600128 31.1964H9.6828L8.42267 32.7094C8.21091 32.9642 8.24551 33.3424 8.50012 33.5541L11.2668 35.8575C11.5214 36.0696 11.8998 36.0349 12.1119 35.7804L12.1122 35.7801L15.1831 32.0909C15.3951 31.8355 15.5316 31.5254 15.5767 31.1964H26.571L22.965 34.9828C22.7368 35.2228 22.7464 35.6027 22.9864 35.8309C23.0979 35.9369 23.246 35.9962 23.4001 35.9959H35.3999C35.7314 35.9959 36 35.7274 36 35.3961V22.7971C36 22.5516 35.8506 22.3308 35.6226 22.2396ZM33.5597 6.0583L32.3998 7.31285V6.43044L33.1197 5.65047L33.5597 6.0583ZM31.2 5.95998V5.95147H31.2071L32.2385 4.83809L30.4763 3.20784L24.3635 9.81343L26.1257 11.4437L31.2 5.95998ZM24.9732 12.011L23.593 12.4136L23.8877 11.0061L24.9732 12.011ZM33.8683 3.07594L32.107 1.44651L31.2915 2.32727L33.0532 3.95835L33.8683 3.07594ZM3.00049 2.9985H3.60034C4.5946 2.9985 5.40045 3.80429 5.40045 4.79847V27.6124C4.88409 27.2152 4.25156 26.9988 3.60034 26.9966H3.00049C2.349 26.9988 1.71674 27.2152 1.20038 27.6124V4.79847C1.20038 3.80429 2.00623 2.9985 3.00049 2.9985ZM3.60034 28.1966H3.00049C2.00623 28.1966 1.20038 29.0027 1.20038 29.9966H5.40045C5.40045 29.0027 4.5946 28.1966 3.60034 28.1966ZM14.2611 31.3235L13.8771 31.7843L12.0328 30.2491L12.4162 29.7877C12.6282 29.5331 13.0064 29.4985 13.261 29.7105C13.2613 29.7105 13.2613 29.7108 13.2616 29.7108L14.1836 30.4765C14.4385 30.6882 14.4734 31.0664 14.2616 31.3213L14.2611 31.3218V31.3235ZM9.72949 33.0161L11.5741 34.5514L13.1094 32.7066L11.2651 31.1711L9.72949 33.0161ZM15.3247 29.9965C15.225 29.8304 15.099 29.6818 14.9515 29.5563L14.0294 28.789C13.2654 28.1529 12.1305 28.2564 11.4944 29.0205L10.6803 29.9965H6.60022V5.99841H26.2597L23.0756 9.43907C23.03 9.49043 22.9937 9.54975 22.9688 9.61374C22.9616 9.63105 22.9561 9.64725 22.9501 9.66538C22.9479 9.67224 22.9451 9.67915 22.9424 9.68615C22.938 9.69734 22.9336 9.70875 22.9308 9.72058L22.2145 13.145C22.147 13.4694 22.3552 13.7871 22.6795 13.8547C22.7759 13.8748 22.8756 13.8709 22.9698 13.8434L26.33 12.8644C26.3384 12.8617 26.346 12.8579 26.3536 12.8541C26.3602 12.8508 26.3668 12.8476 26.3737 12.8451C26.3888 12.8396 26.4044 12.8319 26.4207 12.824C26.4879 12.7935 26.5489 12.7504 26.6006 12.6974L31.2003 7.72671V26.3367L27.7143 29.9965H15.3247ZM24.7997 34.796H34.8V24.2968L24.7997 34.796ZM28.8005 33.5962C28.5577 33.5962 28.3388 33.4501 28.246 33.2259C28.1532 33.0018 28.2045 32.7437 28.3762 32.572L32.5763 28.3725C32.6886 28.2599 32.8413 28.1968 33.0003 28.1968C33.3316 28.1968 33.6005 28.4651 33.6005 28.7966V32.9963C33.6005 33.3276 33.3318 33.5962 33.0003 33.5962H28.8005ZM32.4003 32.3962V30.2447L30.2486 32.3962H32.4003ZM22.2001 22.797H26.3999C26.7314 22.797 27 23.0656 27 23.3968C27 23.7283 26.7314 23.9969 26.4001 23.9969H9.60013C9.26862 23.9969 9 23.7283 9 23.3968C9 23.0656 9.26862 22.797 9.60013 22.797H13.7999V16.1975C13.8005 16.0385 13.8634 15.8858 13.9752 15.7726L17.5751 12.1729C17.8094 11.9387 18.1892 11.9387 18.4235 12.1729L22.0235 15.7726C22.1358 15.8855 22.1992 16.0382 22.2001 16.1975V22.797ZM20.1521 15.5974L18.0004 13.4459L15.8488 15.5974H20.1521ZM14.9999 16.7974H21.0001V22.7971H14.9999V16.7974ZM17.3997 9.59815H18.6V10.798H17.3997V9.59815ZM18.6 25.1969H17.3997V26.3968H18.6V25.1969Z" fill="black"/>
</g>
</svg>
